<svg xmlns="http://www.w3.org/2000/svg" width="1500" height="1560" viewBox="0 0 1500 1560" role="img" aria-labelledby="title desc">
<title id="title">Ruby data-access benchmark</title>
<desc id="desc">MiniSql, Sequel, and ActiveRecord benchmark with YJIT on and off.</desc>
<rect width="100%" height="100%" fill="#faf8f4"/>
<style>text{font-family:Inter,Arial,sans-serif;fill:#24211d}.title{font-size:32px;font-weight:800}.sub{font-size:17px;fill:#5c554d}.label{font-size:14px}.group{font-size:21px;font-weight:800}.combo{font-size:15px;font-weight:700;fill:#5c554d}.value{font-size:13px;font-weight:800}.axis{stroke:#ded6ca;stroke-width:1}.tick{font-size:13px;fill:#7a7570}.legend{font-size:14px}</style>
<text x="56" y="54" class="title">Ruby PostgreSQL data access — rendered sessions per second</text>
<text x="56" y="86" class="sub">Static 5k users / 50k topics / ~300k posts fixture. 60s per combination. Higher is better.</text>
<rect x="56" y="102" width="14" height="14" rx="3" fill="#c9a96e"/>
<text x="76" y="114" class="legend">MiniSql</text>
<rect x="171" y="102" width="14" height="14" rx="3" fill="#6f91a8"/>
<text x="191" y="114" class="legend">Sequel</text>
<rect x="286" y="102" width="14" height="14" rx="3" fill="#7a7570"/>
<text x="306" y="114" class="legend">ActiveRecord</text>
<line x1="405.0" y1="130" x2="405.0" y2="1490" class="axis"/>
<text x="405.0" y="1514" text-anchor="middle" class="tick">0</text>
<line x1="530.0" y1="130" x2="530.0" y2="1490" class="axis"/>
<text x="530.0" y="1514" text-anchor="middle" class="tick">20</text>
<line x1="655.0" y1="130" x2="655.0" y2="1490" class="axis"/>
<text x="655.0" y="1514" text-anchor="middle" class="tick">40</text>
<line x1="780.0" y1="130" x2="780.0" y2="1490" class="axis"/>
<text x="780.0" y="1514" text-anchor="middle" class="tick">60</text>
<line x1="905.0" y1="130" x2="905.0" y2="1490" class="axis"/>
<text x="905.0" y="1514" text-anchor="middle" class="tick">80</text>
<line x1="1030.0" y1="130" x2="1030.0" y2="1490" class="axis"/>
<text x="1030.0" y="1514" text-anchor="middle" class="tick">100</text>
<line x1="1155.0" y1="130" x2="1155.0" y2="1490" class="axis"/>
<text x="1155.0" y="1514" text-anchor="middle" class="tick">120</text>
<line x1="1280.0" y1="130" x2="1280.0" y2="1490" class="axis"/>
<text x="1280.0" y="1514" text-anchor="middle" class="tick">140</text>
<line x1="1405.0" y1="130" x2="1405.0" y2="1490" class="axis"/>
<text x="1405.0" y="1514" text-anchor="middle" class="tick">160</text>
<text x="56" y="123" class="group">Jarvis container</text>
<text x="155" y="165" class="combo">Ruby 3.4.6 / YJIT off</text>
<text x="391" y="163" text-anchor="end" class="label">MiniSql</text>
<rect x="405" y="145" width="940.9" height="24" rx="5" fill="#c9a96e"/>
<text x="1352.9" y="163" class="value">150.6</text>
<text x="391" y="195" text-anchor="end" class="label">Sequel</text>
<rect x="405" y="177" width="888.7" height="24" rx="5" fill="#6f91a8"/>
<text x="1300.7" y="195" class="value">142.2</text>
<text x="391" y="227" text-anchor="end" class="label">ActiveRecord</text>
<rect x="405" y="209" width="734.6" height="24" rx="5" fill="#7a7570"/>
<text x="1146.6" y="227" class="value">117.5</text>
<text x="155" y="277" class="combo">Ruby 3.4.6 / YJIT on</text>
<text x="391" y="275" text-anchor="end" class="label">MiniSql</text>
<rect x="405" y="257" width="949.6" height="24" rx="5" fill="#c9a96e"/>
<text x="1361.6" y="275" class="value">151.9</text>
<text x="391" y="307" text-anchor="end" class="label">Sequel</text>
<rect x="405" y="289" width="903.6" height="24" rx="5" fill="#6f91a8"/>
<text x="1315.6" y="307" class="value">144.6</text>
<text x="391" y="339" text-anchor="end" class="label">ActiveRecord</text>
<rect x="405" y="321" width="808.9" height="24" rx="5" fill="#7a7570"/>
<text x="1220.9" y="339" class="value">129.4</text>
<text x="155" y="389" class="combo">Ruby 4.0.5 / YJIT off</text>
<text x="391" y="387" text-anchor="end" class="label">MiniSql</text>
<rect x="405" y="369" width="938.5" height="24" rx="5" fill="#c9a96e"/>
<text x="1350.5" y="387" class="value">150.2</text>
<text x="391" y="419" text-anchor="end" class="label">Sequel</text>
<rect x="405" y="401" width="899.3" height="24" rx="5" fill="#6f91a8"/>
<text x="1311.3" y="419" class="value">143.9</text>
<text x="391" y="451" text-anchor="end" class="label">ActiveRecord</text>
<rect x="405" y="433" width="738.4" height="24" rx="5" fill="#7a7570"/>
<text x="1150.4" y="451" class="value">118.1</text>
<text x="155" y="501" class="combo">Ruby 4.0.5 / YJIT on</text>
<text x="391" y="499" text-anchor="end" class="label">MiniSql</text>
<rect x="405" y="481" width="947.8" height="24" rx="5" fill="#c9a96e"/>
<text x="1359.8" y="499" class="value">151.7</text>
<text x="391" y="531" text-anchor="end" class="label">Sequel</text>
<rect x="405" y="513" width="919.7" height="24" rx="5" fill="#6f91a8"/>
<text x="1331.7" y="531" class="value">147.2</text>
<text x="391" y="563" text-anchor="end" class="label">ActiveRecord</text>
<rect x="405" y="545" width="827.3" height="24" rx="5" fill="#7a7570"/>
<text x="1239.2" y="563" class="value">132.4</text>
<text x="56" y="629" class="group">wasnotwas Docker</text>
<text x="155" y="671" class="combo">Ruby 3.4.6 / YJIT off</text>
<text x="391" y="669" text-anchor="end" class="label">MiniSql</text>
<rect x="405" y="651" width="189.5" height="24" rx="5" fill="#c9a96e"/>
<text x="601.5" y="669" class="value">30.3</text>
<text x="391" y="701" text-anchor="end" class="label">Sequel</text>
<rect x="405" y="683" width="198.9" height="24" rx="5" fill="#6f91a8"/>
<text x="610.9" y="701" class="value">31.8</text>
<text x="391" y="733" text-anchor="end" class="label">ActiveRecord</text>
<rect x="405" y="715" width="149.2" height="24" rx="5" fill="#7a7570"/>
<text x="561.2" y="733" class="value">23.9</text>
<text x="155" y="783" class="combo">Ruby 3.4.6 / YJIT on</text>
<text x="391" y="781" text-anchor="end" class="label">MiniSql</text>
<rect x="405" y="763" width="233.3" height="24" rx="5" fill="#c9a96e"/>
<text x="645.3" y="781" class="value">37.3</text>
<text x="391" y="813" text-anchor="end" class="label">Sequel</text>
<rect x="405" y="795" width="217.0" height="24" rx="5" fill="#6f91a8"/>
<text x="629.0" y="813" class="value">34.7</text>
<text x="391" y="845" text-anchor="end" class="label">ActiveRecord</text>
<rect x="405" y="827" width="185.9" height="24" rx="5" fill="#7a7570"/>
<text x="597.9" y="845" class="value">29.7</text>
<text x="155" y="895" class="combo">Ruby 4.0.5 / YJIT off</text>
<text x="391" y="893" text-anchor="end" class="label">MiniSql</text>
<rect x="405" y="875" width="231.9" height="24" rx="5" fill="#c9a96e"/>
<text x="643.9" y="893" class="value">37.1</text>
<text x="391" y="925" text-anchor="end" class="label">Sequel</text>
<rect x="405" y="907" width="208.2" height="24" rx="5" fill="#6f91a8"/>
<text x="620.2" y="925" class="value">33.3</text>
<text x="391" y="957" text-anchor="end" class="label">ActiveRecord</text>
<rect x="405" y="939" width="143.5" height="24" rx="5" fill="#7a7570"/>
<text x="555.5" y="957" class="value">23.0</text>
<text x="155" y="1007" class="combo">Ruby 4.0.5 / YJIT on</text>
<text x="391" y="1005" text-anchor="end" class="label">MiniSql</text>
<rect x="405" y="987" width="232.4" height="24" rx="5" fill="#c9a96e"/>
<text x="644.4" y="1005" class="value">37.2</text>
<text x="391" y="1037" text-anchor="end" class="label">Sequel</text>
<rect x="405" y="1019" width="220.4" height="24" rx="5" fill="#6f91a8"/>
<text x="632.4" y="1037" class="value">35.3</text>
<text x="391" y="1069" text-anchor="end" class="label">ActiveRecord</text>
<rect x="405" y="1051" width="182.9" height="24" rx="5" fill="#7a7570"/>
<text x="594.9" y="1069" class="value">29.3</text>
<text x="905.0" y="1538" text-anchor="middle" class="sub">sessions / second</text>
</svg>